HIERARCHY
ROOT Hips
{
  OFFSET -4.35178 90.3298 111.633
  CHANNELS 6 Xposition Yposition Zposition Zrotation Xrotation Yrotation
  JOINT LeftUpLeg
  {
    OFFSET 0.103456 1.85784 10.5485
    CHANNELS 6 Xposition Yposition Zposition Zrotation Xrotation Yrotation
    JOINT LeftLeg
    {
      OFFSET 43.5 -4.2e-05 0
      CHANNELS 6 Xposition Yposition Zposition Zrotation Xrotation Yrotation
      JOINT LeftFoot
      {
        OFFSET 42.3722 1.9e-05 0
        CHANNELS 6 Xposition Yposition Zposition Zrotation Xrotation Yrotation
        JOINT LeftToe
        {
          OFFSET 17.3 0 0
          CHANNELS 6 Xposition Yposition Zposition Zrotation Xrotation Yrotation
          End Site
          {
            OFFSET 0 0 0
          }
        }
      }
    }
  }
  JOINT RightUpLeg
  {
    OFFSET 0.103456 1.85782 -10.5485
    CHANNELS 6 Xposition Yposition Zposition Zrotation Xrotation Yrotation
    JOINT RightLeg
    {
      OFFSET 43.5 -2.7e-05 0
      CHANNELS 6 Xposition Yposition Zposition Zrotation Xrotation Yrotation
      JOINT RightFoot
      {
        OFFSET 42.3723 0 0
        CHANNELS 6 Xposition Yposition Zposition Zrotation Xrotation Yrotation
        JOINT RightToe
        {
          OFFSET 17.3 0 1.7e-05
          CHANNELS 6 Xposition Yposition Zposition Zrotation Xrotation Yrotation
          End Site
          {
            OFFSET 0 0 0
          }
        }
      }
    }
  }
  JOINT Spine
  {
    OFFSET 6.90197 -2.60373 0
    CHANNELS 6 Xposition Yposition Zposition Zrotation Xrotation Yrotation
    JOINT Spine1
    {
      OFFSET 12.5881 0 0
      CHANNELS 6 Xposition Yposition Zposition Zrotation Xrotation Yrotation
      JOINT Spine2
      {
        OFFSET 12.3432 -1.8e-05 0
        CHANNELS 6 Xposition Yposition Zposition Zrotation Xrotation Yrotation
        JOINT Neck
        {
          OFFSET 25.8329 2.3e-05 0
          CHANNELS 6 Xposition Yposition Zposition Zrotation Xrotation Yrotation
          JOINT Head
          {
            OFFSET 11.7666 0 0
            CHANNELS 6 Xposition Yposition Zposition Zrotation Xrotation Yrotation
            End Site
            {
              OFFSET 0 0 0
            }
          }
        }
        JOINT LeftShoulder
        {
          OFFSET 19.7459 -1.48035 6.0001
          CHANNELS 6 Xposition Yposition Zposition Zrotation Xrotation Yrotation
          JOINT LeftArm
          {
            OFFSET 11.2841 1.8e-05 -2e-05
            CHANNELS 6 Xposition Yposition Zposition Zrotation Xrotation Yrotation
            JOINT LeftForeArm
            {
              OFFSET 33 -1.3e-05 1.9e-05
              CHANNELS 6 Xposition Yposition Zposition Zrotation Xrotation Yrotation
              JOINT LeftHand
              {
                OFFSET 25.2 3.2e-05 1.1e-05
                CHANNELS 6 Xposition Yposition Zposition Zrotation Xrotation Yrotation
                End Site
                {
                  OFFSET 0 0 0
                }
              }
            }
          }
        }
        JOINT RightShoulder
        {
          OFFSET 19.7461 -1.48036 -6.00008
          CHANNELS 6 Xposition Yposition Zposition Zrotation Xrotation Yrotation
          JOINT RightArm
          {
            OFFSET 11.2841 0 0
            CHANNELS 6 Xposition Yposition Zposition Zrotation Xrotation Yrotation
            JOINT RightForeArm
            {
              OFFSET 33.0001 1.6e-05 0
              CHANNELS 6 Xposition Yposition Zposition Zrotation Xrotation Yrotation
              JOINT RightHand
              {
                OFFSET 25.1998 0.000123 0.000432
                CHANNELS 6 Xposition Yposition Zposition Zrotation Xrotation Yrotation
                End Site
                {
                  OFFSET 0 0 0
                }
              }
            }
          }
        }
      }
    }
  }
}
MOTION
Frames:	5
Frame Time:	0.0333333
-61.3003 128.095 12.0094 -88.2761 -71.9953 -178.313 0.103456 1.85784 10.5485 -21.5779 -3.98373 -172.706 43.5 -4.2e-05 1e-05 -26.5242 6.22958 -2.54154 42.3722 1.9e-05 -1.42109e-14 79.0262 -15.2211 -9.82787 17.3 7.10543e-15 3e-06 21.4546 -1e-06 0.003093 0.103456 1.85782 -10.5485 -5.47466 -1.16549 -171.632 43.5 -2.7e-05 4e-06 -19.1473 15.0508 2.30109 42.3723 7.10543e-15 1e-05 80.7389 7.11605 -16.7056 17.3 -6e-06 1.7e-05 21.4546 -1.9e-05 -0.003116 6.90197 -2.60373 -3e-06 15.2183 -0.978006 -2.53793 12.5881 1e-05 8e-06 20.4068 -2.39407 -4.71926 12.3432 -1.8e-05 -5e-06 20.1314 -2.37482 -4.55735 25.8329 2.3e-05 7e-06 9.46904 3.41312 -7.47658 11.7666 -8e-06 -6e-06 -23.9734 -9.64531 15.8575 19.7459 -1.48035 6.0001 -167.825 35.3031 -92.988 11.2841 1.8e-05 -2e-05 37.9421 -32.1572 75.6886 33 -1.3e-05 1.9e-05 -55.2152 10.8788 -15.6389 25.2 3.2e-05 1.1e-05 -20.7344 34.4631 -4.69452 19.7461 -1.48036 -6.00008 -168.646 -23.0338 80.8381 11.2841 0 -1e-06 -19.5213 -2.91049 -35.138 33.0001 1.6e-05 -1e-06 -44.9823 -13.2052 20.8555 25.1998 0.000123 0.000432 -9.27981 -26.6747 18.3239 
-61.3697 127.893 9.76054 -88.1245 -68.4702 -178.447 0.103456 1.85784 10.5485 -17.5881 -5.18361 -172.673 43.5 -4.2e-05 1e-05 -16.9342 4.29932 -3.15304 42.3722 1.9e-05 -1.42109e-14 76.6622 -16.1224 -8.61548 17.3 7.10543e-15 3e-06 21.4546 -1e-06 0.003093 0.103456 1.85782 -10.5485 -4.5885 -0.0749833 -171.553 43.5 -2.7e-05 4e-06 -20.2572 14.2084 1.54283 42.3723 7.10543e-15 1e-05 81.8826 7.41573 -15.1264 17.3 -6e-06 1.7e-05 21.4546 -1.9e-05 -0.003116 6.90197 -2.60373 -3e-06 14.6963 -0.584991 -2.67863 12.5881 1e-05 8e-06 19.3637 -1.64616 -5.11492 12.3432 -1.8e-05 -5e-06 19.0749 -1.66861 -4.99653 25.8329 2.3e-05 7e-06 9.50718 3.66868 -7.64102 11.7666 -8e-06 -6e-06 -21.5701 -8.81876 15.9666 19.7459 -1.48035 6.0001 -168.982 34.2996 -90.0191 11.2841 1.8e-05 -2e-05 34.5546 -29.5847 73.3164 33 -1.3e-05 1.9e-05 -52.3606 10.6611 -16.5581 25.2 3.2e-05 1.1e-05 -20.4281 33.6129 -4.0444 19.7461 -1.48036 -6.00008 -170.065 -21.1586 78.9723 11.2841 2.84217e-14 -1e-06 -20.1141 -4.60472 -35.1784 33.0001 1.6e-05 -1e-06 -46.1444 -13.3157 20.3794 25.1998 0.000123 0.000432 -9.57633 -27.0381 18.452 
-61.3514 127.587 7.54317 -87.4096 -64.8777 -178.221 0.103456 1.85784 10.5485 -13.2525 -6.00983 -172.426 43.5 -4.2e-05 1e-05 -10.1751 2.61792 -3.69917 42.3722 1.9e-05 0 74.5543 -15.9491 -7.22509 17.3 0 3e-06 21.4546 -1e-06 0.003093 0.103456 1.85782 -10.5485 -3.80888 0.669142 -171.473 43.5 -2.7e-05 4e-06 -22.0879 13.2497 0.767783 42.3723 -7.10543e-15 1e-05 83.0007 7.99848 -13.105 17.3 -6e-06 1.7e-05 21.4546 -1.9e-05 -0.003116 6.90197 -2.60373 -3e-06 14.182 -0.183592 -2.72279 12.5881 1e-05 8e-06 18.3414 -0.852735 -5.31518 12.3432 -1.8e-05 -5e-06 18.0393 -0.904644 -5.24363 25.8329 2.3e-05 7e-06 9.50597 4.09684 -7.86657 11.7666 -8e-06 -6e-06 -19.0316 -7.81667 16.1456 19.7459 -1.48035 6.0001 -169.695 33.1779 -87.4929 11.2841 1.8e-05 -2e-05 31.1804 -26.9962 71.7041 33 -1.3e-05 1.9e-05 -49.2601 10.8604 -17.5378 25.2 3.2e-05 1.1e-05 -20.2725 33.3908 -3.71178 19.7461 -1.48036 -6.00008 -171.586 -18.84 76.8883 11.2841 0 -1e-06 -20.615 -6.3711 -35.0017 33.0001 1.6e-05 -1e-06 -47.2331 -13.2251 19.9052 25.1998 0.000123 0.000432 -9.80852 -27.3663 18.6012 
-61.3987 127.129 5.38091 -86.3926 -61.3524 -177.649 0.103456 1.85784 10.5485 -10.0979 -6.45406 -172.783 43.5 -4.2e-05 1e-05 -8.73642 1.23819 -3.80492 42.3722 1.9e-05 1.42109e-14 74.8879 -13.6353 -4.67141 17.3 7.10543e-15 3e-06 21.4546 -1e-06 0.003093 0.103456 1.85782 -10.5485 -3.73411 1.08977 -171.931 43.5 -2.7e-05 4e-06 -25.886 12.1961 0.167412 42.3723 0 1e-05 84.22 9.00849 -10.8871 17.3 -6e-06 1.7e-05 21.4546 -1.9e-05 -0.003116 6.90197 -2.60373 -3e-06 13.6977 0.143729 -2.74275 12.5881 1e-05 8e-06 17.38 -0.198457 -5.44199 12.3432 -1.8e-05 -5e-06 17.0674 -0.274049 -5.40902 25.8329 2.3e-05 7e-06 9.47807 4.66814 -8.18859 11.7666 -8e-06 -6e-06 -16.5501 -6.70392 16.4061 19.7459 -1.48035 6.0001 -170.08 32.0357 -85.3961 11.2841 1.8e-05 -2e-05 28.1532 -24.5875 70.4879 33 -1.3e-05 1.9e-05 -46.2366 10.8227 -18.3408 25.2 3.2e-05 1.1e-05 -20.0663 32.8926 -3.13026 19.7461 -1.48036 -6.00008 -172.891 -16.4598 74.9196 11.2841 2.84217e-14 -1e-06 -21.0351 -7.99841 -34.8047 33.0001 1.6e-05 -1e-06 -48.2627 -13.0346 19.4654 25.1998 0.000123 0.000432 -9.83262 -27.8162 18.9402 
-61.6781 126.691 3.37022 -85.4492 -58.0874 -176.908 0.103456 1.85784 10.5485 -9.35781 -6.80217 -173.902 43.5 -4.2e-05 1e-05 -12.7423 0.217742 -2.96404 42.3722 1.9e-05 0 80.3663 -12.5053 -1.42627 17.3 -7.10543e-15 3e-06 21.4546 -1e-06 0.003093 0.103456 1.85782 -10.5485 -4.9118 1.05733 -173.56 43.5 -2.7e-05 4e-06 -31.9262 10.7149 0.811007 42.3723 -1.42109e-14 1e-05 84.6009 9.68154 -8.11594 17.3 -6e-06 1.7e-05 21.4546 -1.9e-05 -0.003116 6.90197 -2.60373 -3e-06 13.3116 0.332385 -2.7869 12.5881 1e-05 8e-06 16.6125 0.174082 -5.57759 12.3432 -1.8e-05 -5e-06 16.294 0.0777283 -5.56615 25.8329 2.3e-05 7e-06 9.58532 5.27967 -8.56304 11.7666 -8e-06 -6e-06 -14.8641 -5.71238 16.6693 19.7459 -1.48035 6.0001 -170.289 31.121 -83.9387 11.2841 1.8e-05 -2e-05 25.4665 -22.7057 69.5816 33 -1.3e-05 1.9e-05 -43.1604 10.5943 -19.1184 25.2 3.2e-05 1.1e-05 -19.7643 32.1809 -2.42225 19.7461 -1.48036 -6.00008 -173.77 -14.629 73.3358 11.2841 0 -1e-06 -21.393 -9.25943 -34.7225 33.0001 1.6e-05 -1e-06 -48.9473 -12.9603 19.2204 25.1998 0.000123 0.000432 -10.0198 -28.0874 19.1096 
